<svg xmlns="http://www.w3.org/2000/svg" viewBox="0 0 512 512">


  <g fill="#6c6252">
    <rect x="38" y="212" width="12" height="24" rx="6"></rect>
    <rect x="60" y="196" width="12" height="56" rx="6"></rect>
    <rect x="82" y="176" width="12" height="96" rx="6"></rect>
    <rect x="104" y="190" width="12" height="68" rx="6"></rect>
    <rect x="126" y="206" width="12" height="36" rx="6"></rect>
  </g>

  <g fill="#6c6252">
    <rect x="374" y="206" width="12" height="36" rx="6"></rect>
    <rect x="396" y="190" width="12" height="68" rx="6"></rect>
    <rect x="418" y="176" width="12" height="96" rx="6"></rect>
    <rect x="440" y="196" width="12" height="56" rx="6"></rect>
    <rect x="462" y="212" width="12" height="24" rx="6"></rect>
  </g>

  <defs>
    <clipPath id="lens"><circle cx="236" cy="224" r="126"></circle></clipPath>
  </defs>


  <circle cx="236" cy="224" r="126" fill="#15120d"></circle>
  <g clip-path="url(#lens)">

    <g fill="#6c6252">
      <rect x="124" y="150" width="26" height="26" rx="5"></rect>
      <rect x="124" y="190" width="26" height="26" rx="5"></rect>
      <rect x="124" y="230" width="26" height="26" rx="5"></rect>
      <rect x="124" y="270" width="26" height="26" rx="5"></rect>
    </g>

    <g fill="#2e2820">
      <rect x="160" y="150" width="210" height="26" rx="5"></rect>
      <rect x="160" y="190" width="210" height="26" rx="5"></rect>
      <rect x="160" y="230" width="210" height="26" rx="5"></rect>
      <rect x="160" y="270" width="210" height="26" rx="5"></rect>
    </g>

    <g fill="#f5972a">
      <rect x="306" y="150" width="34" height="26" rx="5"></rect>
      <rect x="262" y="190" width="34" height="26" rx="5"></rect>
      <rect x="218" y="230" width="34" height="26" rx="5"></rect>
      <rect x="174" y="270" width="34" height="26" rx="5"></rect>
    </g>
  </g>


  <circle cx="236" cy="224" r="126" fill="none" stroke="#f6f2ec" stroke-width="16"></circle>
  <line x1="328" y1="316" x2="426" y2="414" stroke="#f6f2ec" stroke-width="32" stroke-linecap="round"></line>
</svg>
